<svg width="1000" height="650" viewBox="0 0 1000 650" xmlns="http://www.w3.org/2000/svg">
  <defs>
    <linearGradient id="grad" x1="0" y1="0" x2="1" y2="1">
      <stop offset="0%" stop-color="#134e5e"/>
      <stop offset="100%" stop-color="#71b280"/>
    </linearGradient>
  </defs>
  <rect width="1000" height="650" rx="40" fill="url(#grad)"/>
  <circle cx="820" cy="130" r="110" fill="rgba(255,255,255,0.16)"/>
  <circle cx="160" cy="520" r="145" fill="rgba(255,255,255,0.12)"/>
  <rect x="90" y="95" width="820" height="460" rx="32" fill="rgba(255,255,255,0.18)" stroke="rgba(255,255,255,0.5)" stroke-width="3"/>
  <g transform="translate(500, 200) scale(1.6)" stroke="white" stroke-width="3" fill="none" stroke-linejoin="round" stroke-linecap="round">
    <!-- Gear -->
    <circle cx="-10" cy="-10" r="12" fill="rgba(255,255,255,0.1)"/>
    <circle cx="-10" cy="-10" r="4" fill="none"/>
    <path d="M -10 -22 L -10 -20 M -10 0 L -10 2 M -22 -10 L -20 -10 M 0 -10 L 2 -10 M -18 -18 L -16.5 -16.5 M -3.5 -3.5 L -2 -2 M -18 -2 L -16.5 -3.5 M -3.5 -16.5 L -2 -18" />
    <!-- Wrench -->
    <path d="M 18 -18 L -18 18" stroke-width="4"/>
    <path d="M 12 -12 L 22 -22 C 26 -26, 32 -20, 28 -16 L 18 -6 Z" fill="rgba(255,255,255,0.2)"/>
  </g>
  <text x="500" y="330" font-family="Arial, sans-serif" font-size="54" font-weight="700" text-anchor="middle" fill="white">Поддръжка</text>
  <text x="500" y="390" font-family="Arial, sans-serif" font-size="26" text-anchor="middle" fill="white">сигурност и развитие</text>
  <line x1="310" y1="440" x2="690" y2="440" stroke="white" stroke-width="6" stroke-linecap="round" opacity="0.85"/>
</svg>