<svg width="1000" height="650" viewBox="0 0 1000 650" xmlns="http://www.w3.org/2000/svg">
  <defs>
    <linearGradient id="grad" x1="0" y1="0" x2="1" y2="1">
      <stop offset="0%" stop-color="#141e30"/>
      <stop offset="100%" stop-color="#243b55"/>
    </linearGradient>
  </defs>
  <rect width="1000" height="650" rx="40" fill="url(#grad)"/>
  <circle cx="820" cy="130" r="110" fill="rgba(255,255,255,0.16)"/>
  <circle cx="160" cy="520" r="145" fill="rgba(255,255,255,0.12)"/>
  <rect x="90" y="95" width="820" height="460" rx="32" fill="rgba(255,255,255,0.18)" stroke="rgba(255,255,255,0.5)" stroke-width="3"/>
  <g transform="translate(500, 200) scale(1.6)" stroke="white" stroke-width="3" fill="none" stroke-linejoin="round" stroke-linecap="round">
    <!-- Center Person -->
    <circle cx="0" cy="-18" r="10" fill="rgba(255,255,255,0.2)"/>
    <path d="M -20 12 C -20 0, 20 0, 20 12" fill="rgba(255,255,255,0.2)"/>
    <!-- Left Person -->
    <circle cx="-22" cy="-10" r="7" fill="rgba(255,255,255,0.15)"/>
    <path d="M -36 12 C -36 4, -8 4, -8 12" fill="rgba(255,255,255,0.15)"/>
    <!-- Right Person -->
    <circle cx="22" cy="-10" r="7" fill="rgba(255,255,255,0.15)"/>
    <path d="M 8 12 C 8 4, 36 4, 36 12" fill="rgba(255,255,255,0.15)"/>
  </g>
  <text x="500" y="330" font-family="Arial, sans-serif" font-size="54" font-weight="700" text-anchor="middle" fill="white">Нашият екип</text>
  <text x="500" y="390" font-family="Arial, sans-serif" font-size="26" text-anchor="middle" fill="white">дизайн • код • стратегия</text>
  <line x1="310" y1="440" x2="690" y2="440" stroke="white" stroke-width="6" stroke-linecap="round" opacity="0.85"/>
</svg>