<svg width="1000" height="650" viewBox="0 0 1000 650" xmlns="http://www.w3.org/2000/svg">
  <defs>
    <linearGradient id="grad" x1="0" y1="0" x2="1" y2="1">
      <stop offset="0%" stop-color="#283c86"/>
      <stop offset="100%" stop-color="#45a247"/>
    </linearGradient>
  </defs>
  <rect width="1000" height="650" rx="40" fill="url(#grad)"/>
  <circle cx="820" cy="130" r="110" fill="rgba(255,255,255,0.16)"/>
  <circle cx="160" cy="520" r="145" fill="rgba(255,255,255,0.12)"/>
  <rect x="90" y="95" width="820" height="460" rx="32" fill="rgba(255,255,255,0.18)" stroke="rgba(255,255,255,0.5)" stroke-width="3"/>
  <g transform="translate(500, 200) scale(1.6)" stroke="white" stroke-width="3" fill="none" stroke-linejoin="round" stroke-linecap="round">
    <!-- Palette shape -->
    <path d="M -25 -25 C 10 -40, 40 -10, 30 15 C 20 30, -5 35, -25 25 C -45 15, -45 -10, -25 -25 Z" fill="rgba(255,255,255,0.2)"/>
    <!-- Thumb hole -->
    <circle cx="-20" cy="5" r="4" fill="none"/>
    <!-- Paint dabs -->
    <circle cx="-10" cy="-15" r="3" fill="white"/>
    <circle cx="10" cy="-15" r="3.5" fill="white"/>
    <circle cx="20" cy="0" r="3" fill="white"/>
    <!-- Brush -->
    <path d="M 5 20 L 32 -10 L 25 -17 L -2 13 Z" fill="rgba(255,255,255,0.3)"/>
    <path d="M 32 -10 L 37 -15 L 34 -18 L 29 -13 Z" fill="white"/>
  </g>
  <text x="500" y="330" font-family="Arial, sans-serif" font-size="54" font-weight="700" text-anchor="middle" fill="white">Уеб дизайн</text>
  <text x="500" y="390" font-family="Arial, sans-serif" font-size="26" text-anchor="middle" fill="white">чист и професионален интерфейс</text>
  <line x1="310" y1="440" x2="690" y2="440" stroke="white" stroke-width="6" stroke-linecap="round" opacity="0.85"/>
</svg>